<svg xmlns="http://www.w3.org/2000/svg" xmlns:xlink="http://www.w3.org/1999/xlink" width="200" zoomAndPan="magnify" viewBox="0 0 150 33.749998" height="45" preserveAspectRatio="xMidYMid meet" version="1.0"><defs><g/><clipPath id="47725dee33"><path d="M 12 6 L 32 6 L 32 31.144531 L 12 31.144531 Z M 12 6 " clip-rule="nonzero"/></clipPath><clipPath id="ca424ab666"><path d="M 0.550781 2.875 L 43 2.875 L 43 31.144531 L 0.550781 31.144531 Z M 0.550781 2.875 " clip-rule="nonzero"/></clipPath></defs><g clip-path="url(#47725dee33)"><path fill="#3241ff" d="M 21.195312 6.558594 C 21.1875 6.570312 21.179688 6.578125 21.175781 6.589844 L 13.847656 18.5625 C 10.824219 23.207031 12.722656 29.21875 17.539062 30.898438 C 18.355469 31.183594 19.21875 31.300781 20.085938 31.300781 L 23.464844 31.300781 C 24.316406 31.300781 25.175781 31.183594 25.984375 30.90625 C 30.796875 29.246094 32.703125 23.207031 29.679688 18.5625 L 22.285156 6.605469 C 22.261719 6.566406 22.238281 6.527344 22.214844 6.488281 C 21.992188 6.144531 21.492188 6.136719 21.257812 6.472656 Z M 21.195312 6.558594 " fill-opacity="1" fill-rule="nonzero"/></g><g clip-path="url(#ca424ab666)"><path fill="#004aad" d="M 8.359375 31.300781 C 7.496094 31.300781 6.628906 31.183594 5.8125 30.898438 C 1 29.21875 -0.902344 23.207031 2.121094 18.566406 L 9.414062 6.644531 C 9.539062 6.4375 9.671875 6.230469 9.820312 6.035156 C 10.769531 4.773438 11.984375 3.917969 13.292969 3.4375 C 14.699219 2.917969 16.179688 2.859375 17.558594 3.1875 C 18.046875 3.304688 18.148438 3.953125 17.726562 4.230469 C 17.027344 4.695312 16.382812 5.289062 15.828125 6.023438 C 15.699219 6.191406 15.515625 6.480469 15.402344 6.660156 L 8.117188 18.566406 C 5.414062 22.71875 6.652344 27.96875 10.390625 30.230469 C 10.890625 30.535156 10.679688 31.300781 10.09375 31.300781 Z M 35.167969 31.300781 C 36.03125 31.300781 36.898438 31.183594 37.714844 30.898438 C 42.527344 29.21875 44.429688 23.207031 41.40625 18.5625 L 34.113281 6.644531 C 33.984375 6.4375 33.855469 6.230469 33.707031 6.035156 C 32.753906 4.773438 31.542969 3.917969 30.234375 3.433594 C 28.824219 2.917969 27.347656 2.859375 25.96875 3.1875 C 25.476562 3.304688 25.378906 3.949219 25.796875 4.226562 C 26.589844 4.753906 27.308594 5.445312 27.910156 6.316406 C 27.917969 6.324219 27.929688 6.339844 27.933594 6.351562 L 35.40625 18.5625 C 38.113281 22.714844 36.875 27.96875 33.136719 30.230469 C 32.636719 30.53125 32.847656 31.300781 33.433594 31.300781 Z M 35.167969 31.300781 " fill-opacity="1" fill-rule="nonzero"/></g><g fill="#4c49f7" fill-opacity="1"><g transform="translate(47.219799, 26.25671)"><g><path d="M 6.265625 0.046875 L 5.90625 0.015625 L 5.546875 0.046875 L 5.125 0.03125 L 4.78125 -0.03125 L 4.046875 0.015625 L 3.71875 0 L 3.328125 0.03125 L 2.03125 0.015625 L 1.5 -0.21875 L 1.34375 -0.703125 L 1.3125 -1.09375 L 1.359375 -2.34375 L 1.3125 -2.703125 L 1.34375 -3.046875 L 1.359375 -5.953125 L 1.3125 -6.28125 L 1.328125 -7.75 L 1.359375 -8.09375 L 1.3125 -8.46875 L 1.34375 -10.234375 L 1.296875 -10.625 L 1.34375 -11.359375 L 1.3125 -12.046875 L 1.515625 -12.421875 L 1.890625 -12.578125 L 2.25 -12.546875 L 2.609375 -12.59375 L 2.9375 -12.546875 L 3.265625 -12.625 L 3.640625 -12.578125 L 5.109375 -12.609375 L 5.46875 -12.578125 L 5.765625 -12.59375 L 6.125 -12.546875 L 6.53125 -12.59375 L 7.984375 -12.609375 L 8.3125 -12.53125 L 8.6875 -12.53125 L 9.046875 -12.390625 L 9.203125 -12.046875 L 9.25 -10.96875 L 9.21875 -10.609375 L 9.25 -10.25 L 9.0625 -9.921875 L 8.6875 -9.71875 L 8.34375 -9.6875 L 5.765625 -9.734375 L 5.4375 -9.65625 L 5.09375 -9.671875 L 4.6875 -9.53125 L 4.53125 -9.1875 L 4.53125 -8.625 L 4.671875 -8.078125 L 5.046875 -7.90625 L 6.09375 -7.953125 L 6.859375 -7.890625 L 7.234375 -7.9375 L 8.296875 -7.9375 L 8.703125 -7.703125 L 8.890625 -7.1875 L 8.828125 -5.578125 L 8.703125 -5.21875 L 8.34375 -5.078125 L 7.9375 -5.09375 L 7.578125 -5.046875 L 6.828125 -5.078125 L 6.15625 -5.03125 L 5.578125 -5.09375 L 5.03125 -5.078125 L 4.71875 -4.875 L 4.546875 -4.5 L 4.546875 -3.359375 L 4.6875 -3.046875 L 5.078125 -2.859375 L 5.46875 -2.890625 L 5.8125 -2.84375 L 6.203125 -2.859375 L 6.5625 -2.828125 L 7.15625 -2.890625 L 8.078125 -2.875 L 8.421875 -2.828125 L 8.828125 -2.859375 L 9.203125 -2.703125 L 9.40625 -2.34375 L 9.40625 -0.515625 L 9.203125 -0.140625 L 8.828125 0.015625 Z M 6.265625 0.046875 "/></g></g></g><g fill="#4c49f7" fill-opacity="1"><g transform="translate(57.615927, 26.25671)"><g><path d="M 6.265625 0.140625 L 5.921875 0.125 L 5.59375 0.046875 L 5.234375 -0.078125 L 4.90625 -0.140625 L 4.09375 -0.484375 L 3.328125 -0.90625 L 2.515625 -1.59375 L 1.78125 -2.390625 L 1 -3.953125 L 0.75 -4.984375 L 0.640625 -6.296875 L 0.828125 -7.84375 L 1 -8.578125 L 1.453125 -9.578125 L 1.796875 -10.109375 L 2.28125 -10.71875 L 3.0625 -11.421875 L 3.578125 -11.8125 L 4.90625 -12.4375 L 6.65625 -12.78125 L 7.765625 -12.765625 L 8.125 -12.71875 L 8.46875 -12.703125 L 10.203125 -12.125 L 11.421875 -11.34375 L 11.921875 -10.828125 L 12.125 -10.484375 L 12.375 -10.171875 L 12.53125 -9.890625 L 12.734375 -9.609375 L 12.84375 -9.21875 L 12.96875 -8.90625 L 13.078125 -8.5 L 12.953125 -8.140625 L 12.640625 -8 L 12.109375 -7.953125 L 11.59375 -8 L 11.234375 -7.984375 L 10.859375 -8 L 10.53125 -7.96875 L 10.125 -8.171875 L 9.78125 -8.5 L 9.578125 -8.78125 L 9.0625 -9.296875 L 8.8125 -9.5 L 8.484375 -9.625 L 7.9375 -9.78125 L 7.15625 -9.8125 L 5.953125 -9.65625 L 5.46875 -9.390625 L 5.03125 -9.046875 L 4.609375 -8.546875 L 4.421875 -8.203125 L 4.15625 -7.546875 L 4.03125 -6.828125 L 4.03125 -5.734375 L 4.078125 -5.34375 L 4.171875 -5.015625 L 4.296875 -4.765625 L 4.421875 -4.40625 L 4.8125 -3.78125 L 5.34375 -3.3125 L 5.96875 -2.984375 L 6.625 -2.75 L 7.140625 -2.703125 L 8.09375 -2.75 L 8.71875 -3.09375 L 9 -3.203125 L 9.28125 -3.453125 L 9.6875 -3.921875 L 9.875 -4.265625 L 10.15625 -4.546875 L 10.578125 -4.765625 L 10.9375 -4.75 L 11.296875 -4.765625 L 11.65625 -4.71875 L 12.65625 -4.78125 L 13.015625 -4.546875 L 13.125 -4.21875 L 12.65625 -2.859375 L 12.28125 -2.21875 L 11.875 -1.671875 L 11.359375 -1.171875 L 10.484375 -0.546875 L 10.171875 -0.390625 L 9.796875 -0.265625 L 9.484375 -0.09375 L 8.421875 0.125 L 7.15625 0.21875 Z M 6.265625 0.140625 "/></g></g></g><g fill="#4c49f7" fill-opacity="1"><g transform="translate(71.42946, 26.25671)"><g><path d="M 7.21875 0.234375 L 6.125 0.1875 L 4.609375 -0.265625 L 4.265625 -0.40625 L 3.046875 -1.0625 L 2.8125 -1.328125 L 2.296875 -1.8125 L 1.453125 -2.96875 L 1.28125 -3.296875 L 1.171875 -3.671875 L 0.90625 -4.28125 L 0.703125 -5.40625 L 0.765625 -7.5 L 0.921875 -8.265625 L 1.265625 -9.265625 L 1.421875 -9.5625 L 2.03125 -10.46875 L 2.515625 -11 L 3.09375 -11.40625 L 3.34375 -11.625 L 4.265625 -12.1875 L 4.953125 -12.375 L 5.265625 -12.515625 L 5.625 -12.625 L 5.984375 -12.703125 L 7.25 -12.765625 L 8.09375 -12.75 L 10.453125 -12.015625 L 11.359375 -11.4375 L 12.140625 -10.734375 L 12.375 -10.40625 L 12.59375 -10.203125 L 12.828125 -9.890625 L 12.953125 -9.5625 L 13.265625 -8.96875 L 13.359375 -8.5625 L 13.5 -8.1875 L 13.65625 -7.515625 L 13.734375 -6.28125 L 13.65625 -5.015625 L 13.578125 -4.625 L 13.46875 -4.328125 L 13.421875 -3.96875 L 13.296875 -3.640625 L 12.59375 -2.390625 L 12.359375 -2.0625 L 11.09375 -0.859375 L 9.5 -0.140625 L 8.8125 0.078125 Z M 6.703125 -2.9375 L 7.75 -2.96875 L 8.09375 -3.0625 L 8.421875 -3.09375 L 8.703125 -3.25 L 9.03125 -3.40625 L 9.578125 -3.828125 L 9.796875 -4.15625 L 9.96875 -4.421875 L 10.15625 -4.6875 L 10.328125 -5.4375 L 10.4375 -6.328125 L 10.359375 -7.109375 L 10.234375 -7.421875 L 10.125 -7.78125 L 9.984375 -8.109375 L 9.5625 -8.71875 L 9.015625 -9.140625 L 8.0625 -9.546875 L 7.1875 -9.609375 L 6.359375 -9.53125 L 5.984375 -9.4375 L 5.671875 -9.28125 L 5.140625 -8.921875 L 4.875 -8.6875 L 4.640625 -8.40625 L 4.484375 -8.09375 L 4.265625 -7.84375 L 4.15625 -7.515625 L 4.03125 -6.859375 L 4.015625 -6.3125 L 4.09375 -5.40625 L 4.4375 -4.40625 L 4.671875 -4.15625 L 4.859375 -3.90625 L 5.40625 -3.421875 L 6.03125 -3.09375 L 6.34375 -3.0625 Z M 6.703125 -2.9375 "/></g></g></g><g fill="#004aad" fill-opacity="1"><g transform="translate(85.953965, 26.25671)"><g><path d="M 4.40625 -0.390625 L 4.296875 -0.703125 L 4.140625 -1.046875 L 2.671875 -5.125 L 2.515625 -5.40625 L 2.015625 -6.765625 L 1.90625 -7.15625 L 1.171875 -9.171875 L 1 -9.484375 L 0.25 -11.53125 L 0.15625 -12.015625 L 0.234375 -12.421875 L 0.609375 -12.53125 L 0.984375 -12.546875 L 1.3125 -12.609375 L 1.640625 -12.53125 L 3.078125 -12.515625 L 3.421875 -12.359375 L 3.734375 -12.0625 L 3.890625 -11.703125 L 3.953125 -11.34375 L 4.171875 -10.640625 L 4.3125 -10.34375 L 5.46875 -6.421875 L 5.546875 -5.984375 L 5.6875 -6 L 5.953125 -6.6875 L 6.03125 -7.0625 L 6.203125 -7.34375 L 6.859375 -9.421875 L 7.125 -10.078125 L 7.71875 -11.859375 L 8.015625 -12.21875 L 8.375 -12.390625 L 8.78125 -12.390625 L 9.15625 -12.171875 L 9.40625 -11.8125 L 9.546875 -11.484375 L 9.6875 -11.1875 L 9.90625 -10.46875 L 10.046875 -10.125 L 10.234375 -9.4375 L 11 -7.40625 L 11.09375 -7.046875 L 11.453125 -6.03125 L 11.640625 -6 L 11.75 -6.34375 L 11.875 -7.109375 L 12.109375 -7.859375 L 12.171875 -8.21875 L 13.171875 -11.390625 L 13.328125 -11.6875 L 13.421875 -12.03125 L 13.71875 -12.40625 L 14.09375 -12.59375 L 14.4375 -12.53125 L 14.8125 -12.578125 L 15.53125 -12.53125 L 16.171875 -12.578125 L 16.53125 -12.515625 L 16.890625 -12.421875 L 17 -12 L 16.65625 -10.90625 L 16.46875 -10.578125 L 16.390625 -10.171875 L 15.234375 -7.125 L 15.15625 -6.8125 L 15 -6.5 L 14.859375 -5.984375 L 14.265625 -4.453125 L 14.09375 -4.15625 L 13.015625 -1.03125 L 12.859375 -0.703125 L 12.75 -0.359375 L 12.484375 -0.03125 L 12.046875 0.109375 L 11.75 0.15625 L 11.40625 0.1875 L 10.984375 -0.03125 L 10.640625 -0.40625 L 10.53125 -0.75 L 10.265625 -1.34375 L 9.25 -4.125 L 8.9375 -4.734375 L 8.828125 -5.109375 L 8.65625 -5.40625 L 8.46875 -5.46875 L 8.234375 -4.765625 L 7.90625 -4.078125 L 7.8125 -3.703125 L 7.25 -2.375 L 7.15625 -2.09375 L 7 -1.703125 L 6.90625 -1.40625 L 6.71875 -1.078125 L 6.625 -0.6875 L 6.453125 -0.375 L 6.171875 0 L 5.765625 0.140625 L 5.09375 0.15625 L 4.6875 -0.078125 Z M 4.40625 -0.390625 "/></g></g></g><g fill="#004aad" fill-opacity="1"><g transform="translate(103.202881, 26.25671)"><g><path d="M 10.609375 0.03125 L 10.234375 0 L 9.8125 -0.1875 L 9.453125 -0.453125 L 9.359375 -0.765625 L 9.1875 -1.109375 L 8.84375 -1.40625 L 8.453125 -1.59375 L 8.0625 -1.546875 L 7.734375 -1.578125 L 5.96875 -1.5625 L 5.640625 -1.625 L 4.890625 -1.546875 L 4.546875 -1.59375 L 4.171875 -1.40625 L 3.828125 -1.0625 L 3.5 -0.46875 L 3.171875 -0.140625 L 2.75 -0.015625 L 1.75 0.015625 L 1.390625 -0.015625 L 0.6875 0.015625 L 0.328125 -0.09375 L 0.234375 -0.546875 L 0.34375 -0.90625 L 0.703125 -1.625 L 0.796875 -1.9375 L 0.984375 -2.1875 L 1.265625 -2.90625 L 1.578125 -3.484375 L 1.703125 -3.84375 L 1.890625 -4.125 L 2 -4.515625 L 3.828125 -8.359375 L 3.9375 -8.6875 L 4.140625 -9.03125 L 4.21875 -9.390625 L 4.421875 -9.65625 L 5.140625 -11.3125 L 5.3125 -11.5625 L 5.4375 -11.921875 L 5.59375 -12.234375 L 5.921875 -12.53125 L 6.5 -12.734375 L 7.078125 -12.546875 L 7.390625 -12.234375 L 7.734375 -11.59375 L 7.84375 -11.28125 L 8.03125 -10.953125 L 8.140625 -10.59375 L 9.328125 -8.09375 L 9.453125 -7.71875 L 9.84375 -7.046875 L 9.953125 -6.765625 L 10.109375 -6.5 L 10.21875 -6.09375 L 10.390625 -5.75 L 10.578125 -5.484375 L 11.265625 -3.84375 L 11.625 -3.203125 L 11.875 -2.53125 L 12.359375 -1.59375 L 12.625 -0.9375 L 12.75 -0.515625 L 12.703125 -0.09375 L 12.1875 0 L 11.640625 0.015625 L 11.296875 -0.015625 Z M 6.53125 -4.4375 L 7.25 -4.453125 L 7.515625 -4.609375 L 7.59375 -4.921875 L 6.75 -6.90625 L 6.5 -7.046875 L 6.296875 -6.890625 L 5.453125 -4.953125 L 5.46875 -4.609375 L 5.75 -4.484375 L 6.171875 -4.515625 Z M 6.53125 -4.4375 "/></g></g></g><g fill="#004aad" fill-opacity="1"><g transform="translate(116.350917, 26.25671)"><g><path d="M 4.6875 0.03125 L 4.140625 0.015625 L 3.609375 -0.15625 L 3.375 -0.5625 L 3.421875 -0.90625 L 3.4375 -1.9375 L 3.40625 -2.3125 L 3.421875 -3.78125 L 3.453125 -4.140625 L 3.40625 -6.8125 L 3.4375 -7.3125 L 3.421875 -7.671875 L 3.4375 -8.078125 L 3.40625 -8.578125 L 3.4375 -9.15625 L 3.234375 -9.515625 L 2.890625 -9.6875 L 1.1875 -9.734375 L 0.828125 -9.6875 L 0.5 -9.875 L 0.34375 -10.203125 L 0.3125 -10.75 L 0.34375 -11.65625 L 0.328125 -12.015625 L 0.546875 -12.421875 L 0.875 -12.609375 L 2.140625 -12.53125 L 2.703125 -12.59375 L 3.765625 -12.53125 L 4.078125 -12.609375 L 4.484375 -12.578125 L 4.859375 -12.625 L 5.203125 -12.609375 L 5.5625 -12.53125 L 7.015625 -12.609375 L 7.359375 -12.578125 L 7.734375 -12.625 L 8.078125 -12.59375 L 9.1875 -12.59375 L 9.53125 -12.359375 L 9.734375 -12 L 9.71875 -10.28125 L 9.5 -9.890625 L 9.1875 -9.6875 L 8.859375 -9.71875 L 8.484375 -9.65625 L 7.828125 -9.75 L 7.125 -9.71875 L 6.78125 -9.5 L 6.640625 -8.953125 L 6.578125 -7.390625 L 6.640625 -7.015625 L 6.59375 -4.125 L 6.65625 -3.71875 L 6.625 -3.40625 L 6.640625 -2.671875 L 6.59375 -2.296875 L 6.65625 -1.625 L 6.59375 -0.6875 L 6.421875 -0.1875 L 5.90625 0 Z M 4.6875 0.03125 "/></g></g></g><g fill="#004aad" fill-opacity="1"><g transform="translate(126.495238, 26.25671)"><g><path d="M 6.265625 0.046875 L 5.90625 0.015625 L 5.546875 0.046875 L 5.125 0.03125 L 4.78125 -0.03125 L 4.046875 0.015625 L 3.71875 0 L 3.328125 0.03125 L 2.03125 0.015625 L 1.5 -0.21875 L 1.34375 -0.703125 L 1.3125 -1.09375 L 1.359375 -2.34375 L 1.3125 -2.703125 L 1.34375 -3.046875 L 1.359375 -5.953125 L 1.3125 -6.28125 L 1.328125 -7.75 L 1.359375 -8.09375 L 1.3125 -8.46875 L 1.34375 -10.234375 L 1.296875 -10.625 L 1.34375 -11.359375 L 1.3125 -12.046875 L 1.515625 -12.421875 L 1.890625 -12.578125 L 2.25 -12.546875 L 2.609375 -12.59375 L 2.9375 -12.546875 L 3.265625 -12.625 L 3.640625 -12.578125 L 5.109375 -12.609375 L 5.46875 -12.578125 L 5.765625 -12.59375 L 6.125 -12.546875 L 6.53125 -12.59375 L 7.984375 -12.609375 L 8.3125 -12.53125 L 8.6875 -12.53125 L 9.046875 -12.390625 L 9.203125 -12.046875 L 9.25 -10.96875 L 9.21875 -10.609375 L 9.25 -10.25 L 9.0625 -9.921875 L 8.6875 -9.71875 L 8.34375 -9.6875 L 5.765625 -9.734375 L 5.4375 -9.65625 L 5.09375 -9.671875 L 4.6875 -9.53125 L 4.53125 -9.1875 L 4.53125 -8.625 L 4.671875 -8.078125 L 5.046875 -7.90625 L 6.09375 -7.953125 L 6.859375 -7.890625 L 7.234375 -7.9375 L 8.296875 -7.9375 L 8.703125 -7.703125 L 8.890625 -7.1875 L 8.828125 -5.578125 L 8.703125 -5.21875 L 8.34375 -5.078125 L 7.9375 -5.09375 L 7.578125 -5.046875 L 6.828125 -5.078125 L 6.15625 -5.03125 L 5.578125 -5.09375 L 5.03125 -5.078125 L 4.71875 -4.875 L 4.546875 -4.5 L 4.546875 -3.359375 L 4.6875 -3.046875 L 5.078125 -2.859375 L 5.46875 -2.890625 L 5.8125 -2.84375 L 6.203125 -2.859375 L 6.5625 -2.828125 L 7.15625 -2.890625 L 8.078125 -2.875 L 8.421875 -2.828125 L 8.828125 -2.859375 L 9.203125 -2.703125 L 9.40625 -2.34375 L 9.40625 -0.515625 L 9.203125 -0.140625 L 8.828125 0.015625 Z M 6.265625 0.046875 "/></g></g></g><g fill="#004aad" fill-opacity="1"><g transform="translate(136.891365, 26.25671)"><g><path d="M 1.34375 -0.734375 L 1.34375 -3.40625 L 1.3125 -3.765625 L 1.328125 -5.21875 L 1.359375 -5.5625 L 1.328125 -5.90625 L 1.328125 -6.265625 L 1.3125 -6.65625 L 1.359375 -7.375 L 1.328125 -7.734375 L 1.3125 -11.859375 L 1.53125 -12.359375 L 1.859375 -12.53125 L 2.90625 -12.625 L 3.3125 -12.609375 L 3.671875 -12.53125 L 4.03125 -12.53125 L 4.359375 -12.625 L 4.71875 -12.625 L 5.078125 -12.546875 L 6.15625 -12.546875 L 6.671875 -12.59375 L 7.25 -12.578125 L 8.265625 -12.34375 L 8.953125 -12.109375 L 9.578125 -11.765625 L 10.609375 -10.6875 L 10.8125 -10.390625 L 10.953125 -10.09375 L 11.28125 -9.0625 L 11.328125 -8.703125 L 11.359375 -7.578125 L 11.125 -6.53125 L 10.4375 -5.265625 L 10.171875 -5.046875 L 9.921875 -4.78125 L 9.765625 -4.390625 L 9.78125 -3.953125 L 10 -3.6875 L 10.578125 -2.75 L 10.734375 -2.421875 L 11.34375 -1.515625 L 11.484375 -1.171875 L 11.703125 -0.921875 L 11.90625 -0.515625 L 11.796875 -0.125 L 11.453125 0.03125 L 10.859375 0.046875 L 10.515625 0.015625 L 9.09375 0.03125 L 8.484375 -0.125 L 8.09375 -0.453125 L 7.890625 -0.75 L 7.75 -1.109375 L 7.546875 -1.390625 L 7.21875 -2.03125 L 6.828125 -2.578125 L 6.6875 -2.890625 L 6.46875 -3.25 L 6.109375 -3.5625 L 5.078125 -3.703125 L 4.734375 -3.5 L 4.5625 -3.140625 L 4.53125 -2 L 4.59375 -1.625 L 4.546875 -1.296875 L 4.546875 -0.6875 L 4.390625 -0.15625 L 3.8125 0.015625 L 3.265625 0.015625 L 2.984375 0.046875 L 2.40625 0 L 2.046875 0.046875 L 1.53125 -0.1875 Z M 5.078125 -6.578125 L 5.46875 -6.625 L 6.328125 -6.578125 L 6.671875 -6.59375 L 7.1875 -6.71875 L 7.515625 -6.875 L 7.71875 -7.03125 L 7.90625 -7.296875 L 8.078125 -7.65625 L 8.125 -8.203125 L 8.0625 -8.671875 L 7.953125 -8.953125 L 7.5 -9.515625 L 7.15625 -9.609375 L 6.6875 -9.640625 L 6.1875 -9.75 L 5.46875 -9.671875 L 5.109375 -9.6875 L 4.734375 -9.546875 L 4.5625 -9.203125 L 4.53125 -8.453125 L 4.5625 -8.140625 L 4.5625 -7.0625 L 4.71875 -6.78125 Z M 5.078125 -6.578125 "/></g></g></g></svg>