<svg xmlns="http://www.w3.org/2000/svg" xmlns:xlink="http://www.w3.org/1999/xlink" width="500" zoomAndPan="magnify" viewBox="0 0 375 374.999991" height="500" preserveAspectRatio="xMidYMid meet" version="1.0"><defs><clipPath id="52243af37f"><path d="M 0 3.570312 L 317 3.570312 L 317 371.070312 L 0 371.070312 Z M 0 3.570312 " clip-rule="nonzero"/></clipPath></defs><rect x="-37.5" width="450" fill="#ffffff" y="-37.499999" height="449.999989" fill-opacity="1"/><rect x="-37.5" width="450" fill="#ffffff" y="-37.499999" height="449.999989" fill-opacity="1"/><path fill="#80cc28" d="M 123.480469 172.269531 C 121.75 197.3125 120.347656 198.714844 95.277344 200.445312 C 120.347656 202.171875 121.75 203.574219 123.480469 228.617188 C 125.210938 203.574219 126.613281 202.171875 151.683594 200.445312 C 126.613281 198.714844 125.210938 197.3125 123.480469 172.269531 " fill-opacity="1" fill-rule="nonzero"/><path fill="#80cc28" d="M 147.90625 145.960938 C 146.996094 159.128906 146.261719 159.863281 133.082031 160.773438 C 146.261719 161.683594 146.996094 162.417969 147.90625 175.585938 C 148.820312 162.417969 149.554688 161.683594 162.734375 160.773438 C 149.554688 159.863281 148.820312 159.128906 147.90625 145.960938 " fill-opacity="1" fill-rule="nonzero"/><path fill="#80cc28" d="M 118.253906 119.875 C 117.34375 133.042969 116.605469 133.777344 103.425781 134.6875 C 116.605469 135.597656 117.34375 136.332031 118.253906 149.5 C 119.164062 136.332031 119.902344 135.597656 133.082031 134.6875 C 119.902344 133.777344 119.164062 133.042969 118.253906 119.875 " fill-opacity="1" fill-rule="nonzero"/><path fill="#80cc28" d="M 145.953125 113.683594 C 145.539062 119.695312 145.203125 120.035156 139.183594 120.445312 C 145.203125 120.863281 145.539062 121.199219 145.953125 127.210938 C 146.371094 121.199219 146.707031 120.863281 152.726562 120.445312 C 146.707031 120.035156 146.371094 119.695312 145.953125 113.683594 " fill-opacity="1" fill-rule="nonzero"/><path fill="#80cc28" d="M 103.414062 156.671875 C 102.914062 163.894531 102.511719 164.296875 95.277344 164.796875 C 102.511719 165.296875 102.914062 165.703125 103.414062 172.925781 C 103.914062 165.703125 104.320312 165.296875 111.550781 164.796875 C 104.320312 164.296875 103.914062 163.894531 103.414062 156.671875 " fill-opacity="1" fill-rule="nonzero"/><path fill="#80cc28" d="M 170.871094 122.78125 C 170.371094 130.003906 169.96875 130.40625 162.734375 130.90625 C 169.96875 131.40625 170.371094 131.8125 170.871094 139.035156 C 171.371094 131.8125 171.777344 131.40625 179.007812 130.90625 C 171.777344 130.40625 171.371094 130.003906 170.871094 122.78125 " fill-opacity="1" fill-rule="nonzero"/><path fill="#51ade5" d="M 235.703125 204.199219 C 234.832031 191.601562 234.125 190.894531 221.515625 190.027344 C 234.125 189.15625 234.832031 188.453125 235.703125 175.855469 C 236.574219 188.453125 237.28125 189.15625 249.886719 190.027344 C 237.28125 190.894531 236.574219 191.601562 235.703125 204.199219 Z M 213.914062 185.136719 C 212.667969 167.058594 211.65625 166.046875 193.558594 164.796875 C 211.65625 163.550781 212.667969 162.539062 213.914062 144.460938 C 215.164062 162.539062 216.175781 163.550781 234.273438 164.796875 C 216.175781 166.046875 215.164062 167.058594 213.914062 185.136719 Z M 189.472656 206.757812 C 188.574219 193.800781 187.847656 193.074219 174.878906 192.179688 C 187.847656 191.285156 188.574219 190.558594 189.472656 177.601562 C 190.363281 190.558594 191.089844 191.285156 204.0625 192.179688 C 191.089844 193.074219 190.363281 193.800781 189.472656 206.757812 Z M 196.597656 136.183594 C 197.035156 142.511719 197.390625 142.867188 203.726562 143.304688 C 197.390625 143.738281 197.035156 144.097656 196.597656 150.425781 C 196.160156 144.097656 195.804688 143.738281 189.472656 143.304688 C 195.804688 142.867188 196.160156 142.511719 196.597656 136.183594 Z M 208.585938 120.445312 C 209.019531 126.777344 209.378906 127.128906 215.710938 127.570312 C 209.378906 128.003906 209.019531 128.359375 208.585938 134.6875 C 208.148438 128.359375 207.792969 128.003906 201.460938 127.570312 C 207.792969 127.128906 208.148438 126.777344 208.585938 120.445312 Z M 267.707031 211.335938 L 210.328125 76.621094 L 152.953125 211.335938 C 135.453125 252.421875 165.632812 298.019531 210.328125 298.019531 L 210.332031 298.019531 C 255.027344 298.019531 285.207031 252.421875 267.707031 211.335938 " fill-opacity="1" fill-rule="nonzero"/><g clip-path="url(#52243af37f)"><path fill="#80cc28" d="M 184 371.070312 C 236.296875 371.070312 283.492188 349.261719 316.980469 314.253906 C 288.828125 337.117188 252.929688 350.832031 213.824219 350.832031 C 123.433594 350.832031 50.15625 277.621094 50.15625 187.320312 C 50.15625 97.015625 123.433594 23.808594 213.824219 23.808594 C 252.929688 23.808594 288.828125 37.519531 316.980469 60.382812 C 283.492188 25.378906 236.296875 3.570312 184 3.570312 C 82.421875 3.570312 0.0742188 85.839844 0.0742188 187.320312 C 0.0742188 288.800781 82.421875 371.070312 184 371.070312 " fill-opacity="1" fill-rule="nonzero"/></g><path fill="#51ade5" d="M 221.578125 34.078125 C 177.964844 34.078125 138.605469 52.265625 110.675781 81.460938 C 134.15625 62.394531 164.089844 50.957031 196.707031 50.957031 C 272.085938 50.957031 333.195312 112.011719 333.195312 187.320312 C 333.195312 262.628906 272.085938 323.675781 196.707031 323.675781 C 164.089844 323.675781 134.15625 312.246094 110.675781 293.179688 C 138.605469 322.371094 177.964844 340.558594 221.578125 340.558594 C 306.292969 340.558594 374.964844 271.953125 374.964844 187.320312 C 374.964844 102.6875 306.292969 34.078125 221.578125 34.078125 " fill-opacity="1" fill-rule="nonzero"/></svg>