<svg xmlns="http://www.w3.org/2000/svg" xmlns:xlink="http://www.w3.org/1999/xlink" width="200" zoomAndPan="magnify" viewBox="0 0 150 33.749998" height="45" preserveAspectRatio="xMidYMid meet" version="1.0"><defs><g/><clipPath id="c0545b7b2f"><path d="M 0.550781 0 L 149.449219 0 L 149.449219 33.5 L 0.550781 33.5 Z M 0.550781 0 " clip-rule="nonzero"/></clipPath><clipPath id="dff5540f65"><path d="M 15 6 L 34 6 L 34 30.402344 L 15 30.402344 Z M 15 6 " clip-rule="nonzero"/></clipPath><clipPath id="0e9baa9dee"><path d="M 4 2.875 L 46 2.875 L 46 30.402344 L 4 30.402344 Z M 4 2.875 " clip-rule="nonzero"/></clipPath></defs><g clip-path="url(#c0545b7b2f)"><path fill="#ffffff" d="M 0.550781 0 L 149.449219 0 L 149.449219 33.5 L 0.550781 33.5 Z M 0.550781 0 " fill-opacity="1" fill-rule="nonzero"/><path fill="#ffffff" d="M 0.550781 0 L 149.449219 0 L 149.449219 33.5 L 0.550781 33.5 Z M 0.550781 0 " fill-opacity="1" fill-rule="nonzero"/></g><g clip-path="url(#dff5540f65)"><path fill="#5271ff" d="M 24.410156 6.414062 C 24.402344 6.421875 24.398438 6.433594 24.390625 6.441406 L 17.355469 17.941406 C 14.449219 22.398438 16.277344 28.175781 20.902344 29.785156 C 21.683594 30.058594 22.515625 30.171875 23.34375 30.171875 L 26.589844 30.171875 C 27.410156 30.171875 28.234375 30.0625 29.007812 29.792969 C 33.632812 28.199219 35.460938 22.398438 32.558594 17.941406 L 25.460938 6.457031 C 25.4375 6.417969 25.414062 6.382812 25.386719 6.34375 C 25.175781 6.015625 24.695312 6.007812 24.46875 6.328125 Z M 24.410156 6.414062 " fill-opacity="1" fill-rule="nonzero"/></g><g clip-path="url(#0e9baa9dee)"><path fill="#004aad" d="M 12.082031 30.171875 C 11.253906 30.171875 10.421875 30.058594 9.640625 29.785156 C 5.015625 28.175781 3.1875 22.398438 6.09375 17.941406 L 13.097656 6.496094 C 13.21875 6.296875 13.34375 6.097656 13.488281 5.910156 C 14.398438 4.699219 15.566406 3.875 16.824219 3.414062 C 18.171875 2.917969 19.59375 2.859375 20.917969 3.175781 C 21.386719 3.289062 21.484375 3.910156 21.082031 4.175781 C 20.410156 4.621094 19.789062 5.195312 19.257812 5.898438 C 19.132812 6.058594 18.957031 6.335938 18.847656 6.511719 L 11.851562 17.941406 C 9.257812 21.929688 10.441406 26.972656 14.035156 29.144531 C 14.515625 29.4375 14.3125 30.171875 13.75 30.171875 Z M 37.828125 30.171875 C 38.660156 30.171875 39.488281 30.058594 40.273438 29.785156 C 44.898438 28.175781 46.722656 22.398438 43.820312 17.941406 L 36.816406 6.496094 C 36.695312 6.296875 36.566406 6.097656 36.425781 5.910156 C 35.511719 4.699219 34.347656 3.875 33.089844 3.414062 C 31.738281 2.917969 30.320312 2.859375 28.992188 3.175781 C 28.523438 3.285156 28.429688 3.910156 28.832031 4.175781 C 29.589844 4.679688 30.28125 5.34375 30.859375 6.179688 C 30.867188 6.1875 30.875 6.203125 30.882812 6.214844 L 38.058594 17.941406 C 40.65625 21.929688 39.46875 26.972656 35.878906 29.144531 C 35.398438 29.4375 35.601562 30.171875 36.164062 30.171875 Z M 37.828125 30.171875 " fill-opacity="1" fill-rule="nonzero"/></g><g fill="#5271ff" fill-opacity="1"><g transform="translate(49.407147, 25.331291)"><g><path d="M 6.015625 0.046875 L 5.671875 0.015625 L 5.328125 0.046875 L 4.921875 0.03125 L 4.59375 -0.03125 L 3.890625 0.015625 L 3.578125 0 L 3.203125 0.03125 L 1.953125 0.015625 L 1.4375 -0.203125 L 1.296875 -0.671875 L 1.265625 -1.046875 L 1.3125 -2.25 L 1.265625 -2.59375 L 1.296875 -2.921875 L 1.3125 -5.71875 L 1.265625 -6.03125 L 1.28125 -7.453125 L 1.3125 -7.78125 L 1.265625 -8.140625 L 1.296875 -9.828125 L 1.25 -10.21875 L 1.296875 -10.921875 L 1.265625 -11.578125 L 1.453125 -11.9375 L 1.8125 -12.078125 L 2.15625 -12.0625 L 2.5 -12.09375 L 2.8125 -12.0625 L 3.140625 -12.125 L 3.484375 -12.078125 L 4.90625 -12.109375 L 5.25 -12.078125 L 5.546875 -12.09375 L 5.890625 -12.0625 L 6.265625 -12.09375 L 7.671875 -12.109375 L 7.984375 -12.046875 L 8.34375 -12.046875 L 8.6875 -11.90625 L 8.84375 -11.578125 L 8.875 -10.546875 L 8.859375 -10.203125 L 8.875 -9.84375 L 8.703125 -9.546875 L 8.34375 -9.328125 L 8.015625 -9.3125 L 5.546875 -9.34375 L 5.21875 -9.28125 L 4.890625 -9.296875 L 4.515625 -9.15625 L 4.359375 -8.828125 L 4.359375 -8.296875 L 4.5 -7.765625 L 4.859375 -7.609375 L 5.859375 -7.640625 L 6.578125 -7.59375 L 6.953125 -7.625 L 7.96875 -7.625 L 8.359375 -7.390625 L 8.53125 -6.90625 L 8.484375 -5.359375 L 8.359375 -5.015625 L 8.015625 -4.875 L 7.625 -4.890625 L 7.28125 -4.859375 L 6.5625 -4.875 L 5.90625 -4.84375 L 5.359375 -4.890625 L 4.84375 -4.875 L 4.53125 -4.6875 L 4.375 -4.328125 L 4.375 -3.234375 L 4.515625 -2.921875 L 4.875 -2.75 L 5.25 -2.78125 L 5.578125 -2.734375 L 5.96875 -2.75 L 6.3125 -2.71875 L 6.875 -2.78125 L 7.765625 -2.765625 L 8.09375 -2.71875 L 8.484375 -2.75 L 8.84375 -2.59375 L 9.03125 -2.25 L 9.03125 -0.5 L 8.84375 -0.140625 L 8.484375 0.015625 Z M 6.015625 0.046875 "/></g></g></g><g fill="#5271ff" fill-opacity="1"><g transform="translate(59.391777, 25.331291)"><g><path d="M 6.015625 0.140625 L 5.6875 0.125 L 5.375 0.046875 L 5.03125 -0.0625 L 4.71875 -0.140625 L 3.9375 -0.46875 L 3.203125 -0.859375 L 2.421875 -1.53125 L 1.703125 -2.296875 L 0.96875 -3.796875 L 0.71875 -4.78125 L 0.625 -6.046875 L 0.796875 -7.53125 L 0.96875 -8.25 L 1.40625 -9.203125 L 1.734375 -9.71875 L 2.1875 -10.296875 L 2.9375 -10.96875 L 3.4375 -11.359375 L 4.71875 -11.953125 L 6.390625 -12.28125 L 7.46875 -12.265625 L 7.8125 -12.21875 L 8.140625 -12.203125 L 9.796875 -11.640625 L 10.96875 -10.90625 L 11.453125 -10.40625 L 11.640625 -10.078125 L 11.890625 -9.78125 L 12.046875 -9.5 L 12.234375 -9.234375 L 12.34375 -8.859375 L 12.453125 -8.546875 L 12.5625 -8.171875 L 12.4375 -7.828125 L 12.15625 -7.6875 L 11.625 -7.640625 L 11.140625 -7.6875 L 10.796875 -7.671875 L 10.4375 -7.6875 L 10.125 -7.65625 L 9.734375 -7.84375 L 9.40625 -8.171875 L 9.203125 -8.4375 L 8.703125 -8.9375 L 8.46875 -9.125 L 8.15625 -9.25 L 7.625 -9.40625 L 6.875 -9.4375 L 5.71875 -9.28125 L 5.25 -9.015625 L 4.84375 -8.6875 L 4.421875 -8.203125 L 4.25 -7.875 L 3.984375 -7.265625 L 3.875 -6.5625 L 3.875 -5.515625 L 3.921875 -5.125 L 4.015625 -4.828125 L 4.125 -4.578125 L 4.25 -4.234375 L 4.625 -3.625 L 5.125 -3.1875 L 5.734375 -2.875 L 6.359375 -2.640625 L 6.859375 -2.59375 L 7.78125 -2.640625 L 8.375 -2.96875 L 8.640625 -3.078125 L 8.921875 -3.3125 L 9.3125 -3.765625 L 9.484375 -4.09375 L 9.765625 -4.375 L 10.15625 -4.578125 L 10.5 -4.5625 L 10.859375 -4.578125 L 11.203125 -4.53125 L 12.171875 -4.59375 L 12.515625 -4.375 L 12.609375 -4.0625 L 12.171875 -2.75 L 11.796875 -2.125 L 11.40625 -1.609375 L 10.921875 -1.125 L 10.078125 -0.515625 L 9.78125 -0.375 L 9.421875 -0.265625 L 9.109375 -0.09375 L 8.09375 0.125 L 6.875 0.203125 Z M 6.015625 0.140625 "/></g></g></g><g fill="#5271ff" fill-opacity="1"><g transform="translate(72.658544, 25.331291)"><g><path d="M 6.9375 0.21875 L 5.890625 0.171875 L 4.421875 -0.265625 L 4.09375 -0.390625 L 2.921875 -1.015625 L 2.703125 -1.28125 L 2.21875 -1.75 L 1.40625 -2.84375 L 1.234375 -3.15625 L 1.125 -3.53125 L 0.859375 -4.109375 L 0.671875 -5.203125 L 0.75 -7.203125 L 0.875 -7.953125 L 1.203125 -8.90625 L 1.359375 -9.1875 L 1.953125 -10.0625 L 2.421875 -10.578125 L 2.96875 -10.953125 L 3.21875 -11.15625 L 4.09375 -11.71875 L 4.75 -11.890625 L 5.0625 -12.03125 L 5.40625 -12.125 L 5.75 -12.203125 L 6.96875 -12.265625 L 7.78125 -12.25 L 10.046875 -11.546875 L 10.921875 -10.984375 L 11.671875 -10.3125 L 11.890625 -10 L 12.09375 -9.796875 L 12.328125 -9.5 L 12.4375 -9.1875 L 12.75 -8.625 L 12.84375 -8.21875 L 12.984375 -7.859375 L 13.109375 -7.21875 L 13.203125 -6.03125 L 13.109375 -4.828125 L 13.046875 -4.4375 L 12.9375 -4.171875 L 12.890625 -3.8125 L 12.765625 -3.484375 L 12.09375 -2.296875 L 11.875 -1.984375 L 10.65625 -0.828125 L 9.125 -0.140625 L 8.46875 0.0625 Z M 6.453125 -2.8125 L 7.453125 -2.84375 L 7.78125 -2.9375 L 8.09375 -2.96875 L 8.359375 -3.125 L 8.671875 -3.265625 L 9.203125 -3.6875 L 9.421875 -3.984375 L 9.578125 -4.25 L 9.765625 -4.515625 L 9.921875 -5.21875 L 10.015625 -6.078125 L 9.953125 -6.828125 L 9.828125 -7.140625 L 9.734375 -7.484375 L 9.59375 -7.796875 L 9.1875 -8.375 L 8.65625 -8.78125 L 7.734375 -9.171875 L 6.90625 -9.234375 L 6.125 -9.15625 L 5.75 -9.078125 L 5.4375 -8.921875 L 4.9375 -8.578125 L 4.6875 -8.34375 L 4.453125 -8.078125 L 4.296875 -7.78125 L 4.09375 -7.53125 L 3.984375 -7.21875 L 3.875 -6.578125 L 3.859375 -6.0625 L 3.9375 -5.203125 L 4.265625 -4.234375 L 4.5 -3.984375 L 4.671875 -3.75 L 5.203125 -3.28125 L 5.796875 -2.96875 L 6.09375 -2.9375 Z M 6.453125 -2.8125 "/></g></g></g><g fill="#004aad" fill-opacity="1"><g transform="translate(86.608142, 25.331291)"><g><path d="M 4.234375 -0.375 L 4.125 -0.671875 L 3.96875 -1 L 2.578125 -4.921875 L 2.421875 -5.203125 L 1.9375 -6.5 L 1.828125 -6.875 L 1.125 -8.8125 L 0.96875 -9.109375 L 0.234375 -11.078125 L 0.15625 -11.546875 L 0.21875 -11.9375 L 0.59375 -12.046875 L 0.953125 -12.0625 L 1.265625 -12.109375 L 1.578125 -12.046875 L 2.953125 -12.03125 L 3.28125 -11.875 L 3.59375 -11.59375 L 3.734375 -11.25 L 3.796875 -10.90625 L 4.015625 -10.234375 L 4.140625 -9.9375 L 5.25 -6.171875 L 5.328125 -5.75 L 5.453125 -5.765625 L 5.71875 -6.421875 L 5.796875 -6.796875 L 5.96875 -7.046875 L 6.578125 -9.0625 L 6.84375 -9.671875 L 7.40625 -11.390625 L 7.703125 -11.734375 L 8.046875 -11.90625 L 8.4375 -11.90625 L 8.796875 -11.703125 L 9.03125 -11.359375 L 9.171875 -11.046875 L 9.3125 -10.75 L 9.515625 -10.0625 L 9.65625 -9.734375 L 9.828125 -9.078125 L 10.578125 -7.125 L 10.65625 -6.78125 L 11.015625 -5.796875 L 11.1875 -5.765625 L 11.28125 -6.09375 L 11.40625 -6.828125 L 11.625 -7.546875 L 11.703125 -7.890625 L 12.65625 -10.9375 L 12.8125 -11.234375 L 12.890625 -11.5625 L 13.1875 -11.921875 L 13.546875 -12.09375 L 13.875 -12.046875 L 14.234375 -12.078125 L 14.9375 -12.046875 L 15.53125 -12.078125 L 15.875 -12.03125 L 16.234375 -11.9375 L 16.328125 -11.53125 L 16 -10.46875 L 15.828125 -10.15625 L 15.75 -9.78125 L 14.640625 -6.84375 L 14.5625 -6.546875 L 14.40625 -6.234375 L 14.28125 -5.75 L 13.703125 -4.28125 L 13.546875 -3.984375 L 12.515625 -0.984375 L 12.359375 -0.671875 L 12.25 -0.34375 L 12 -0.03125 L 11.578125 0.109375 L 11.28125 0.15625 L 10.953125 0.171875 L 10.5625 -0.03125 L 10.234375 -0.390625 L 10.125 -0.71875 L 9.875 -1.296875 L 8.875 -3.953125 L 8.59375 -4.546875 L 8.484375 -4.90625 L 8.3125 -5.203125 L 8.140625 -5.25 L 7.921875 -4.578125 L 7.609375 -3.921875 L 7.5 -3.5625 L 6.96875 -2.28125 L 6.875 -2 L 6.71875 -1.640625 L 6.640625 -1.34375 L 6.46875 -1.03125 L 6.359375 -0.65625 L 6.203125 -0.359375 L 5.921875 0 L 5.546875 0.140625 L 4.890625 0.15625 L 4.515625 -0.0625 Z M 4.234375 -0.375 "/></g></g></g><g fill="#004aad" fill-opacity="1"><g transform="translate(103.174314, 25.331291)"><g><path d="M 10.203125 0.03125 L 9.828125 0 L 9.4375 -0.171875 L 9.09375 -0.4375 L 8.984375 -0.75 L 8.828125 -1.078125 L 8.5 -1.34375 L 8.125 -1.53125 L 7.734375 -1.484375 L 7.4375 -1.515625 L 5.734375 -1.5 L 5.421875 -1.5625 L 4.703125 -1.484375 L 4.375 -1.53125 L 4.015625 -1.34375 L 3.6875 -1.015625 L 3.375 -0.453125 L 3.046875 -0.140625 L 2.640625 -0.015625 L 1.671875 0.015625 L 1.328125 -0.015625 L 0.65625 0.015625 L 0.3125 -0.09375 L 0.21875 -0.515625 L 0.328125 -0.859375 L 0.671875 -1.5625 L 0.765625 -1.859375 L 0.953125 -2.109375 L 1.203125 -2.796875 L 1.515625 -3.359375 L 1.640625 -3.703125 L 1.8125 -3.953125 L 1.921875 -4.34375 L 3.6875 -8.03125 L 3.78125 -8.34375 L 3.96875 -8.671875 L 4.0625 -9.015625 L 4.25 -9.28125 L 4.9375 -10.875 L 5.09375 -11.109375 L 5.21875 -11.453125 L 5.375 -11.75 L 5.6875 -12.046875 L 6.234375 -12.234375 L 6.8125 -12.0625 L 7.109375 -11.75 L 7.4375 -11.140625 L 7.53125 -10.828125 L 7.71875 -10.53125 L 7.828125 -10.171875 L 8.96875 -7.78125 L 9.09375 -7.40625 L 9.453125 -6.78125 L 9.5625 -6.5 L 9.71875 -6.234375 L 9.8125 -5.859375 L 9.984375 -5.53125 L 10.15625 -5.265625 L 10.8125 -3.703125 L 11.15625 -3.078125 L 11.40625 -2.4375 L 11.875 -1.53125 L 12.125 -0.90625 L 12.25 -0.5 L 12.203125 -0.09375 L 11.71875 0 L 11.1875 0.015625 L 10.859375 -0.015625 Z M 6.265625 -4.265625 L 6.96875 -4.28125 L 7.21875 -4.421875 L 7.296875 -4.734375 L 6.484375 -6.640625 L 6.234375 -6.78125 L 6.046875 -6.625 L 5.234375 -4.75 L 5.25 -4.421875 L 5.53125 -4.296875 L 5.921875 -4.34375 Z M 6.265625 -4.265625 "/></g></g></g><g fill="#004aad" fill-opacity="1"><g transform="translate(115.801926, 25.331291)"><g><path d="M 4.515625 0.03125 L 3.96875 0.015625 L 3.46875 -0.15625 L 3.25 -0.53125 L 3.28125 -0.859375 L 3.296875 -1.859375 L 3.265625 -2.234375 L 3.28125 -3.625 L 3.3125 -3.96875 L 3.265625 -6.546875 L 3.296875 -7.03125 L 3.28125 -7.375 L 3.296875 -7.765625 L 3.265625 -8.25 L 3.296875 -8.796875 L 3.109375 -9.140625 L 2.78125 -9.3125 L 1.140625 -9.34375 L 0.796875 -9.3125 L 0.484375 -9.484375 L 0.328125 -9.796875 L 0.296875 -10.328125 L 0.328125 -11.203125 L 0.3125 -11.546875 L 0.515625 -11.9375 L 0.84375 -12.109375 L 2.0625 -12.046875 L 2.59375 -12.09375 L 3.609375 -12.046875 L 3.921875 -12.109375 L 4.296875 -12.078125 L 4.671875 -12.125 L 5 -12.109375 L 5.34375 -12.046875 L 6.734375 -12.109375 L 7.0625 -12.078125 L 7.4375 -12.125 L 7.765625 -12.09375 L 8.828125 -12.09375 L 9.15625 -11.875 L 9.34375 -11.53125 L 9.328125 -9.890625 L 9.125 -9.5 L 8.828125 -9.3125 L 8.515625 -9.328125 L 8.15625 -9.28125 L 7.515625 -9.359375 L 6.84375 -9.328125 L 6.515625 -9.125 L 6.375 -8.609375 L 6.328125 -7.109375 L 6.375 -6.734375 L 6.34375 -3.953125 L 6.390625 -3.578125 L 6.359375 -3.265625 L 6.375 -2.578125 L 6.34375 -2.21875 L 6.390625 -1.5625 L 6.34375 -0.65625 L 6.171875 -0.171875 L 5.671875 0 Z M 4.515625 0.03125 "/></g></g></g><g fill="#004aad" fill-opacity="1"><g transform="translate(125.544716, 25.331291)"><g><path d="M 6.015625 0.046875 L 5.671875 0.015625 L 5.328125 0.046875 L 4.921875 0.03125 L 4.59375 -0.03125 L 3.890625 0.015625 L 3.578125 0 L 3.203125 0.03125 L 1.953125 0.015625 L 1.4375 -0.203125 L 1.296875 -0.671875 L 1.265625 -1.046875 L 1.3125 -2.25 L 1.265625 -2.59375 L 1.296875 -2.921875 L 1.3125 -5.71875 L 1.265625 -6.03125 L 1.28125 -7.453125 L 1.3125 -7.78125 L 1.265625 -8.140625 L 1.296875 -9.828125 L 1.25 -10.21875 L 1.296875 -10.921875 L 1.265625 -11.578125 L 1.453125 -11.9375 L 1.8125 -12.078125 L 2.15625 -12.0625 L 2.5 -12.09375 L 2.8125 -12.0625 L 3.140625 -12.125 L 3.484375 -12.078125 L 4.90625 -12.109375 L 5.25 -12.078125 L 5.546875 -12.09375 L 5.890625 -12.0625 L 6.265625 -12.09375 L 7.671875 -12.109375 L 7.984375 -12.046875 L 8.34375 -12.046875 L 8.6875 -11.90625 L 8.84375 -11.578125 L 8.875 -10.546875 L 8.859375 -10.203125 L 8.875 -9.84375 L 8.703125 -9.546875 L 8.34375 -9.328125 L 8.015625 -9.3125 L 5.546875 -9.34375 L 5.21875 -9.28125 L 4.890625 -9.296875 L 4.515625 -9.15625 L 4.359375 -8.828125 L 4.359375 -8.296875 L 4.5 -7.765625 L 4.859375 -7.609375 L 5.859375 -7.640625 L 6.578125 -7.59375 L 6.953125 -7.625 L 7.96875 -7.625 L 8.359375 -7.390625 L 8.53125 -6.90625 L 8.484375 -5.359375 L 8.359375 -5.015625 L 8.015625 -4.875 L 7.625 -4.890625 L 7.28125 -4.859375 L 6.5625 -4.875 L 5.90625 -4.84375 L 5.359375 -4.890625 L 4.84375 -4.875 L 4.53125 -4.6875 L 4.375 -4.328125 L 4.375 -3.234375 L 4.515625 -2.921875 L 4.875 -2.75 L 5.25 -2.78125 L 5.578125 -2.734375 L 5.96875 -2.75 L 6.3125 -2.71875 L 6.875 -2.78125 L 7.765625 -2.765625 L 8.09375 -2.71875 L 8.484375 -2.75 L 8.84375 -2.59375 L 9.03125 -2.25 L 9.03125 -0.5 L 8.84375 -0.140625 L 8.484375 0.015625 Z M 6.015625 0.046875 "/></g></g></g><g fill="#004aad" fill-opacity="1"><g transform="translate(135.529345, 25.331291)"><g><path d="M 1.296875 -0.703125 L 1.296875 -3.265625 L 1.265625 -3.609375 L 1.28125 -5.015625 L 1.3125 -5.34375 L 1.28125 -5.671875 L 1.28125 -6.015625 L 1.265625 -6.390625 L 1.3125 -7.078125 L 1.28125 -7.4375 L 1.265625 -11.390625 L 1.46875 -11.875 L 1.78125 -12.046875 L 2.796875 -12.125 L 3.1875 -12.109375 L 3.53125 -12.046875 L 3.875 -12.046875 L 4.1875 -12.125 L 4.53125 -12.125 L 4.875 -12.0625 L 5.90625 -12.0625 L 6.40625 -12.09375 L 6.96875 -12.078125 L 7.953125 -11.859375 L 8.609375 -11.625 L 9.203125 -11.296875 L 10.203125 -10.265625 L 10.390625 -9.984375 L 10.53125 -9.6875 L 10.828125 -8.703125 L 10.890625 -8.359375 L 10.921875 -7.28125 L 10.703125 -6.265625 L 10.015625 -5.0625 L 9.78125 -4.859375 L 9.546875 -4.59375 L 9.390625 -4.21875 L 9.40625 -3.796875 L 9.609375 -3.546875 L 10.15625 -2.640625 L 10.3125 -2.328125 L 10.90625 -1.453125 L 11.046875 -1.125 L 11.25 -0.875 L 11.4375 -0.5 L 11.34375 -0.125 L 11.015625 0.03125 L 10.4375 0.046875 L 10.109375 0.015625 L 8.75 0.03125 L 8.15625 -0.125 L 7.78125 -0.4375 L 7.59375 -0.71875 L 7.453125 -1.078125 L 7.265625 -1.328125 L 6.9375 -1.953125 L 6.5625 -2.46875 L 6.421875 -2.78125 L 6.21875 -3.125 L 5.875 -3.421875 L 4.875 -3.5625 L 4.546875 -3.375 L 4.390625 -3.03125 L 4.359375 -1.921875 L 4.40625 -1.5625 L 4.375 -1.25 L 4.375 -0.65625 L 4.21875 -0.15625 L 3.65625 0.015625 L 3.140625 0.015625 L 2.875 0.046875 L 2.3125 0 L 1.96875 0.046875 L 1.46875 -0.171875 Z M 4.875 -6.328125 L 5.25 -6.359375 L 6.078125 -6.328125 L 6.40625 -6.34375 L 6.90625 -6.46875 L 7.21875 -6.59375 L 7.40625 -6.75 L 7.609375 -7.015625 L 7.765625 -7.359375 L 7.8125 -7.875 L 7.734375 -8.328125 L 7.640625 -8.609375 L 7.203125 -9.140625 L 6.875 -9.234375 L 6.421875 -9.265625 L 5.9375 -9.359375 L 5.25 -9.296875 L 4.90625 -9.3125 L 4.546875 -9.171875 L 4.390625 -8.84375 L 4.359375 -8.125 L 4.390625 -7.828125 L 4.390625 -6.796875 L 4.53125 -6.515625 Z M 4.875 -6.328125 "/></g></g></g></svg>